<?xml version="1.0" standalone="no"?>
<!DOCTYPE svg PUBLIC "-//W3C//DTD SVG 20010904//EN"
 "http://www.w3.org/TR/2001/REC-SVG-20010904/DTD/svg10.dtd">
<svg version="1.0" xmlns="http://www.w3.org/2000/svg"
 width="577.000000pt" height="433.000000pt" viewBox="0 0 577.000000 433.000000"
 preserveAspectRatio="xMidYMid meet">

<g transform="translate(0.000000,433.000000) scale(0.100000,-0.100000)"
fill="#000000" stroke="none">
<path d="M0 2165 l0 -2165 2885 0 2885 0 0 2165 0 2165 -2885 0 -2885 0 0
-2165z m4306 331 c27 -27 34 -42 34 -74 0 -58 -15 -89 -52 -112 -43 -26 -87
-25 -129 3 -99 66 -52 217 68 217 38 0 50 -5 79 -34z m-2382 -110 c60 -29 103
-73 138 -139 19 -35 23 -58 23 -137 0 -79 -4 -102 -23 -137 -33 -63 -74 -106
-134 -139 -48 -26 -62 -29 -143 -29 -81 0 -95 3 -144 30 -104 58 -165 160
-165 275 1 137 80 247 213 297 57 21 168 11 235 -21z m628 14 c23 -11 36 -10
84 5 43 13 77 16 138 13 121 -8 184 -46 223 -133 24 -54 33 -439 11 -468 -11
-15 -31 -20 -85 -23 -113 -5 -112 -7 -118 211 -7 208 -13 228 -71 223 l-35 -3
-2 -197 c-2 -234 1 -227 -105 -234 -111 -7 -112 -5 -112 206 0 206 -7 230 -70
230 l-40 0 0 -198 c0 -239 2 -235 -97 -240 -55 -3 -73 -1 -91 15 -23 18 -23
20 -23 286 0 180 3 273 10 281 10 12 39 22 116 40 39 9 240 -1 267 -14z m938
9 c65 -15 117 -55 148 -113 27 -51 27 -53 27 -263 0 -153 -3 -215 -12 -224 -7
-7 -43 -13 -83 -14 -112 -3 -111 -5 -117 210 -5 209 -10 225 -73 225 l-40 0 0
-204 c0 -174 -2 -205 -16 -217 -10 -8 -43 -13 -91 -12 -62 0 -79 3 -90 18 -19
27 -19 547 0 564 41 34 251 52 347 30z m483 -33 c15 -12 17 -38 17 -283 0
-230 -2 -272 -15 -283 -21 -18 -152 -19 -176 -2 -18 12 -19 31 -19 282 0 267
0 269 22 284 28 20 145 21 171 2z"/>
<path d="M4175 2508 c-60 -33 -74 -114 -29 -167 64 -76 184 -29 184 72 0 76
-90 131 -155 95z"/>
<path d="M1705 2397 c-67 -23 -101 -44 -143 -92 -69 -79 -91 -195 -56 -298 54
-159 253 -239 406 -164 61 30 105 74 140 140 19 34 23 58 23 127 0 93 -16 136
-76 204 -64 74 -203 113 -294 83z m145 -197 c89 -63 41 -200 -70 -200 -68 0
-122 69 -106 136 4 15 20 39 36 55 36 36 97 40 140 9z"/>
<path d="M1750 2203 c-40 -16 -60 -46 -60 -94 0 -40 4 -51 31 -73 51 -44 120
-29 151 32 19 38 11 84 -20 114 -19 20 -77 31 -102 21z"/>
<path d="M2262 2395 c-35 -8 -70 -19 -78 -26 -19 -16 -21 -528 -2 -547 16 -16
150 -16 166 0 9 9 12 70 12 215 l0 203 25 6 c35 9 85 -14 96 -43 5 -13 9 -100
9 -192 0 -119 4 -172 13 -185 10 -14 26 -16 92 -14 l80 3 3 212 2 211 28 7
c16 3 41 1 56 -5 46 -17 56 -60 56 -243 0 -113 4 -167 12 -175 18 -18 152 -16
168 3 9 10 11 67 8 212 -4 227 -13 260 -80 318 -67 57 -196 70 -306 32 -39
-14 -48 -14 -80 0 -51 22 -202 26 -280 8z"/>
<path d="M3237 2395 c-38 -8 -75 -19 -83 -26 -19 -16 -21 -528 -2 -547 7 -7
41 -12 83 -12 42 0 76 5 83 12 9 9 12 70 12 214 0 198 0 202 21 207 36 10 79
-4 97 -31 14 -21 18 -60 22 -212 l5 -185 80 -3 c66 -2 82 0 92 14 16 22 18
299 3 389 -12 76 -50 131 -111 163 -60 30 -201 38 -302 17z"/>
<path d="M3802 2358 c-17 -17 -17 -519 0 -536 16 -16 150 -16 166 0 9 9 12 81
12 264 0 139 -3 259 -6 268 -5 13 -22 16 -83 16 -47 0 -82 -5 -89 -12z"/>
</g>
</svg>
