<?xml version="1.0" standalone="no"?>
<!DOCTYPE svg PUBLIC "-//W3C//DTD SVG 20010904//EN"
 "http://www.w3.org/TR/2001/REC-SVG-20010904/DTD/svg10.dtd">
<svg version="1.0" xmlns="http://www.w3.org/2000/svg"
 width="577.000000pt" height="433.000000pt" viewBox="0 0 577.000000 433.000000"
 preserveAspectRatio="xMidYMid meet">

<g transform="translate(0.000000,433.000000) scale(0.100000,-0.100000)"
fill="#000000" stroke="none">
<path d="M0 2165 l0 -2165 2885 0 2885 0 0 2165 0 2165 -2885 0 -2885 0 0
-2165z m3967 984 c69 -26 140 -90 173 -156 21 -41 25 -62 25 -143 0 -80 -4
-102 -23 -140 -77 -148 -246 -216 -396 -160 -112 43 -191 140 -204 252 -30
251 193 433 425 347z m-897 -319 c323 -91 565 -357 621 -684 15 -87 6 -280
-16 -361 -25 -91 -96 -233 -150 -300 -124 -154 -259 -246 -442 -302 -78 -23
-105 -26 -233 -27 -167 0 -221 11 -365 79 -153 71 -284 191 -374 340 -19 31
-50 102 -69 158 -32 92 -36 115 -40 238 -3 103 -1 153 12 207 80 354 345 607
703 672 78 14 268 3 353 -20z"/>
<path d="M3770 3147 c-220 -62 -294 -346 -133 -512 85 -87 228 -115 341 -66
67 30 141 109 166 179 24 70 19 169 -13 234 -63 131 -224 204 -361 165z"/>
<path d="M2720 2835 c-247 -40 -452 -177 -587 -393 -139 -222 -160 -518 -56
-767 94 -223 292 -401 526 -474 536 -165 1087 242 1087 804 0 277 -147 551
-377 702 -170 112 -395 161 -593 128z m267 -551 c186 -91 230 -348 84 -494
-54 -54 -100 -77 -180 -92 -120 -22 -258 49 -319 166 -23 44 -27 63 -27 141 0
78 4 97 27 141 28 53 87 112 137 139 81 41 192 41 278 -1z"/>
<path d="M2733 2279 c-72 -28 -147 -111 -169 -187 -43 -146 25 -294 165 -359
47 -22 63 -25 135 -21 50 3 94 11 114 22 54 28 112 86 140 140 35 69 37 177 3
254 -29 65 -103 134 -168 156 -63 22 -156 20 -220 -5z"/>
</g>
</svg>
